<svg width="215" height="268" viewBox="0 0 215 268" fill="none" xmlns="http://www.w3.org/2000/svg">
<rect x="1" y="1" width="214" height="266" rx="30" fill="url(#paint0_linear_104_3207)"/>
<mask id="mask0_104_3207" style="mask-type:alpha" maskUnits="userSpaceOnUse" x="0" y="0" width="215" height="268">
<rect x="0.990723" y="0.619324" width="213.538" height="266.425" rx="30" fill="#ED713C"/>
</mask>
<g mask="url(#mask0_104_3207)">
<path opacity="0.1" d="M108.168 280.076C108.168 360.214 42.01 425.696 -40.2441 425.696C-122.498 425.696 -188.656 360.214 -188.656 280.076C-188.656 199.938 -122.498 134.456 -40.2441 134.456C42.01 134.456 108.168 199.938 108.168 280.076Z" fill="black" stroke="black" stroke-width="36"/>
<path opacity="0.1" d="M418.902 -37.7517C418.902 64.4901 349.678 141.895 270.49 141.895C191.301 141.895 122.078 64.4901 122.078 -37.7517C122.078 -139.993 191.301 -217.399 270.49 -217.399C349.678 -217.399 418.902 -139.993 418.902 -37.7517Z" fill="black" stroke="black" stroke-width="36"/>
</g>
<path d="M156.606 213.886C156.606 212.617 156.819 211.627 157.244 210.916C157.677 210.197 158.418 209.838 159.466 209.838C160.515 209.838 161.252 210.197 161.677 210.916C162.11 211.627 162.326 212.617 162.326 213.886C162.326 215.169 162.11 216.174 161.677 216.9C161.252 217.619 160.515 217.978 159.466 217.978C158.418 217.978 157.677 217.619 157.244 216.9C156.819 216.174 156.606 215.169 156.606 213.886ZM161.094 213.886C161.094 213.292 161.054 212.79 160.973 212.379C160.9 211.968 160.746 211.635 160.511 211.378C160.277 211.114 159.928 210.982 159.466 210.982C159.004 210.982 158.656 211.114 158.421 211.378C158.187 211.635 158.029 211.968 157.948 212.379C157.875 212.79 157.838 213.292 157.838 213.886C157.838 214.502 157.875 215.019 157.948 215.437C158.022 215.855 158.176 216.192 158.41 216.449C158.652 216.706 159.004 216.834 159.466 216.834C159.928 216.834 160.277 216.706 160.511 216.449C160.753 216.192 160.911 215.855 160.984 215.437C161.058 215.019 161.094 214.502 161.094 213.886ZM165.215 215.822C165.288 216.189 165.446 216.467 165.688 216.658C165.93 216.849 166.256 216.944 166.667 216.944C167.188 216.944 167.569 216.739 167.811 216.328C168.053 215.917 168.174 215.217 168.174 214.227C167.998 214.476 167.749 214.671 167.426 214.81C167.111 214.942 166.766 215.008 166.392 215.008C165.915 215.008 165.483 214.913 165.094 214.722C164.705 214.524 164.397 214.234 164.17 213.853C163.95 213.464 163.84 212.995 163.84 212.445C163.84 211.638 164.075 210.997 164.544 210.52C165.021 210.036 165.673 209.794 166.502 209.794C167.499 209.794 168.207 210.128 168.625 210.795C169.05 211.455 169.263 212.471 169.263 213.842C169.263 214.788 169.182 215.562 169.021 216.163C168.867 216.764 168.596 217.219 168.207 217.527C167.818 217.835 167.279 217.989 166.59 217.989C165.805 217.989 165.2 217.784 164.775 217.373C164.35 216.962 164.111 216.445 164.06 215.822H165.215ZM166.612 213.952C167.052 213.952 167.397 213.816 167.646 213.545C167.903 213.266 168.031 212.9 168.031 212.445C168.031 211.939 167.895 211.547 167.624 211.268C167.36 210.982 166.997 210.839 166.535 210.839C166.073 210.839 165.706 210.986 165.435 211.279C165.171 211.565 165.039 211.943 165.039 212.412C165.039 212.859 165.167 213.23 165.424 213.523C165.688 213.809 166.084 213.952 166.612 213.952ZM174.871 207.616L171.879 219.925H170.647L173.628 207.616H174.871ZM176.979 216.295C177.683 215.686 178.237 215.188 178.64 214.799C179.051 214.403 179.392 213.992 179.663 213.567C179.934 213.142 180.07 212.716 180.07 212.291C180.07 211.851 179.964 211.506 179.751 211.257C179.546 211.008 179.219 210.883 178.772 210.883C178.339 210.883 178.002 211.022 177.76 211.301C177.525 211.572 177.401 211.939 177.386 212.401H176.176C176.198 211.565 176.447 210.927 176.924 210.487C177.408 210.04 178.02 209.816 178.761 209.816C179.56 209.816 180.184 210.036 180.631 210.476C181.086 210.916 181.313 211.503 181.313 212.236C181.313 212.764 181.177 213.274 180.906 213.765C180.642 214.249 180.323 214.685 179.949 215.074C179.582 215.455 179.113 215.899 178.541 216.405L178.046 216.845H181.533V217.89H176.187V216.977L176.979 216.295ZM187.805 211.059H184.12V213.248C184.274 213.043 184.501 212.87 184.802 212.731C185.11 212.592 185.436 212.522 185.781 212.522C186.397 212.522 186.895 212.654 187.277 212.918C187.665 213.182 187.94 213.516 188.102 213.919C188.27 214.322 188.355 214.748 188.355 215.195C188.355 215.738 188.248 216.222 188.036 216.647C187.83 217.065 187.519 217.395 187.101 217.637C186.69 217.879 186.184 218 185.583 218C184.783 218 184.142 217.802 183.658 217.406C183.174 217.01 182.884 216.486 182.789 215.833H184.01C184.09 216.178 184.27 216.453 184.549 216.658C184.827 216.856 185.176 216.955 185.594 216.955C186.114 216.955 186.503 216.797 186.76 216.482C187.024 216.167 187.156 215.749 187.156 215.228C187.156 214.7 187.024 214.297 186.76 214.018C186.496 213.732 186.107 213.589 185.594 213.589C185.234 213.589 184.93 213.681 184.681 213.864C184.439 214.04 184.263 214.282 184.153 214.59H182.965V209.959H187.805V211.059Z" fill="white"/>
<path d="M97.585 153.875V152.523H100.289V162H98.794V153.875H97.585ZM103.144 159.985C103.976 159.266 104.63 158.676 105.107 158.217C105.592 157.749 105.995 157.264 106.316 156.761C106.637 156.258 106.797 155.756 106.797 155.253C106.797 154.733 106.671 154.326 106.42 154.031C106.177 153.736 105.792 153.589 105.263 153.589C104.752 153.589 104.353 153.754 104.067 154.083C103.79 154.404 103.642 154.837 103.625 155.383H102.195C102.221 154.395 102.516 153.641 103.079 153.121C103.651 152.592 104.375 152.328 105.25 152.328C106.195 152.328 106.931 152.588 107.46 153.108C107.997 153.628 108.266 154.321 108.266 155.188C108.266 155.812 108.106 156.414 107.785 156.995C107.473 157.567 107.096 158.083 106.654 158.542C106.221 158.993 105.666 159.517 104.99 160.115L104.405 160.635H108.526V161.87H102.208V160.791L103.144 159.985ZM111.427 157.047C110.526 156.596 110.075 155.886 110.075 154.915C110.075 154.447 110.192 154.018 110.426 153.628C110.66 153.238 111.011 152.93 111.479 152.705C111.947 152.471 112.519 152.354 113.195 152.354C113.862 152.354 114.43 152.471 114.898 152.705C115.375 152.93 115.73 153.238 115.964 153.628C116.198 154.018 116.315 154.447 116.315 154.915C116.315 155.4 116.189 155.829 115.938 156.202C115.695 156.566 115.37 156.848 114.963 157.047C115.457 157.229 115.847 157.528 116.133 157.944C116.419 158.351 116.562 158.832 116.562 159.387C116.562 159.95 116.419 160.449 116.133 160.882C115.847 161.315 115.448 161.649 114.937 161.883C114.426 162.117 113.845 162.234 113.195 162.234C112.545 162.234 111.964 162.117 111.453 161.883C110.95 161.649 110.556 161.315 110.27 160.882C109.984 160.449 109.841 159.95 109.841 159.387C109.841 158.824 109.984 158.338 110.27 157.931C110.556 157.524 110.942 157.229 111.427 157.047ZM114.898 155.097C114.898 154.612 114.746 154.239 114.443 153.979C114.14 153.719 113.724 153.589 113.195 153.589C112.675 153.589 112.263 153.719 111.96 153.979C111.657 154.239 111.505 154.616 111.505 155.11C111.505 155.543 111.661 155.899 111.973 156.176C112.294 156.445 112.701 156.579 113.195 156.579C113.689 156.579 114.096 156.44 114.417 156.163C114.738 155.886 114.898 155.53 114.898 155.097ZM113.195 157.697C112.623 157.697 112.155 157.84 111.791 158.126C111.436 158.403 111.258 158.806 111.258 159.335C111.258 159.829 111.431 160.232 111.778 160.544C112.125 160.847 112.597 160.999 113.195 160.999C113.784 160.999 114.248 160.843 114.586 160.531C114.933 160.219 115.106 159.82 115.106 159.335C115.106 158.815 114.928 158.412 114.573 158.126C114.226 157.84 113.767 157.697 113.195 157.697ZM119.964 159.426C120.051 159.859 120.237 160.189 120.523 160.414C120.809 160.639 121.195 160.752 121.68 160.752C122.295 160.752 122.746 160.509 123.032 160.024C123.318 159.539 123.461 158.711 123.461 157.541C123.253 157.836 122.958 158.065 122.577 158.23C122.204 158.386 121.797 158.464 121.355 158.464C120.792 158.464 120.28 158.351 119.821 158.126C119.362 157.892 118.998 157.55 118.729 157.099C118.469 156.64 118.339 156.085 118.339 155.435C118.339 154.482 118.616 153.723 119.171 153.16C119.734 152.588 120.506 152.302 121.485 152.302C122.664 152.302 123.5 152.696 123.994 153.485C124.497 154.265 124.748 155.465 124.748 157.086C124.748 158.204 124.653 159.118 124.462 159.829C124.28 160.54 123.959 161.077 123.5 161.441C123.041 161.805 122.404 161.987 121.589 161.987C120.662 161.987 119.947 161.744 119.444 161.259C118.941 160.774 118.66 160.163 118.599 159.426H119.964ZM121.615 157.216C122.135 157.216 122.542 157.056 122.837 156.735C123.14 156.406 123.292 155.972 123.292 155.435C123.292 154.837 123.132 154.373 122.811 154.044C122.499 153.706 122.07 153.537 121.524 153.537C120.978 153.537 120.545 153.71 120.224 154.057C119.912 154.395 119.756 154.841 119.756 155.396C119.756 155.925 119.908 156.362 120.211 156.709C120.523 157.047 120.991 157.216 121.615 157.216Z" fill="white"/>
<circle cx="73" cy="163" r="3" fill="white"/>
<circle cx="44" cy="163" r="3" fill="white"/>
<circle cx="58" cy="163" r="3" fill="white"/>
<circle cx="29" cy="163" r="3" fill="white"/>
<rect x="26.0264" y="198.99" width="48.5982" height="31.8552" rx="5" fill="url(#paint1_radial_104_3207)"/>
<path fill-rule="evenodd" clip-rule="evenodd" d="M50.3256 199.307L44.9258 207.632C44.9258 207.632 47.0857 214.916 44.9258 221.16L50.3256 230.525L55.7254 221.16C55.7254 221.16 53.5655 215.957 55.7254 207.632C55.7254 207.632 50.3256 199.307 50.3256 199.307Z" stroke="#C7C7B6" stroke-width="1.3" stroke-linejoin="bevel"/>
<path d="M26.0264 208.014H44.9257" stroke="#C7C7B6" stroke-width="1.3" stroke-linejoin="bevel"/>
<path d="M55.1846 208.014H74.6239" stroke="#C7C7B6" stroke-width="1.3" stroke-linejoin="bevel"/>
<path d="M26.0264 220.756H44.9257" stroke="#C7C7B6" stroke-width="1.3" stroke-linejoin="bevel"/>
<path d="M55.1846 220.756H74.6239" stroke="#C7C7B6" stroke-width="1.3" stroke-linejoin="bevel"/>
<path opacity="0.5" d="M26.444 130.812C26.444 129.996 26.632 129.264 27.008 128.616C27.392 127.968 27.908 127.464 28.556 127.104C29.212 126.736 29.928 126.552 30.704 126.552C31.592 126.552 32.38 126.772 33.068 127.212C33.764 127.644 34.268 128.26 34.58 129.06H32.936C32.72 128.62 32.42 128.292 32.036 128.076C31.652 127.86 31.208 127.752 30.704 127.752C30.152 127.752 29.66 127.876 29.228 128.124C28.796 128.372 28.456 128.728 28.208 129.192C27.968 129.656 27.848 130.196 27.848 130.812C27.848 131.428 27.968 131.968 28.208 132.432C28.456 132.896 28.796 133.256 29.228 133.512C29.66 133.76 30.152 133.884 30.704 133.884C31.208 133.884 31.652 133.776 32.036 133.56C32.42 133.344 32.72 133.016 32.936 132.576H34.58C34.268 133.376 33.764 133.992 33.068 134.424C32.38 134.856 31.592 135.072 30.704 135.072C29.92 135.072 29.204 134.892 28.556 134.532C27.908 134.164 27.392 133.656 27.008 133.008C26.632 132.36 26.444 131.628 26.444 130.812ZM37.5493 129.348C37.7493 129.012 38.0133 128.752 38.3413 128.568C38.6773 128.376 39.0733 128.28 39.5293 128.28V129.696H39.1813C38.6453 129.696 38.2373 129.832 37.9573 130.104C37.6853 130.376 37.5493 130.848 37.5493 131.52V135H36.1813V128.388H37.5493V129.348ZM46.8467 131.532C46.8467 131.78 46.8307 132.004 46.7987 132.204H41.7467C41.7867 132.732 41.9827 133.156 42.3347 133.476C42.6867 133.796 43.1187 133.956 43.6307 133.956C44.3667 133.956 44.8867 133.648 45.1907 133.032H46.6667C46.4667 133.64 46.1027 134.14 45.5747 134.532C45.0547 134.916 44.4067 135.108 43.6307 135.108C42.9987 135.108 42.4307 134.968 41.9267 134.688C41.4307 134.4 41.0387 134 40.7507 133.488C40.4707 132.968 40.3307 132.368 40.3307 131.688C40.3307 131.008 40.4667 130.412 40.7387 129.9C41.0187 129.38 41.4067 128.98 41.9027 128.7C42.4067 128.42 42.9827 128.28 43.6307 128.28C44.2547 128.28 44.8107 128.416 45.2987 128.688C45.7867 128.96 46.1667 129.344 46.4387 129.84C46.7107 130.328 46.8467 130.892 46.8467 131.532ZM45.4187 131.1C45.4107 130.596 45.2307 130.192 44.8787 129.888C44.5267 129.584 44.0907 129.432 43.5707 129.432C43.0987 129.432 42.6947 129.584 42.3587 129.888C42.0227 130.184 41.8227 130.588 41.7587 131.1H45.4187ZM47.737 131.664C47.737 131 47.873 130.412 48.145 129.9C48.425 129.388 48.801 128.992 49.273 128.712C49.753 128.424 50.285 128.28 50.869 128.28C51.301 128.28 51.725 128.376 52.141 128.568C52.565 128.752 52.901 129 53.149 129.312V126.12H54.529V135H53.149V134.004C52.925 134.324 52.613 134.588 52.213 134.796C51.821 135.004 51.369 135.108 50.857 135.108C50.281 135.108 49.753 134.964 49.273 134.676C48.801 134.38 48.425 133.972 48.145 133.452C47.873 132.924 47.737 132.328 47.737 131.664ZM53.149 131.688C53.149 131.232 53.053 130.836 52.861 130.5C52.677 130.164 52.433 129.908 52.129 129.732C51.825 129.556 51.497 129.468 51.145 129.468C50.793 129.468 50.465 129.556 50.161 129.732C49.857 129.9 49.609 130.152 49.417 130.488C49.233 130.816 49.141 131.208 49.141 131.664C49.141 132.12 49.233 132.52 49.417 132.864C49.609 133.208 49.857 133.472 50.161 133.656C50.473 133.832 50.801 133.92 51.145 133.92C51.497 133.92 51.825 133.832 52.129 133.656C52.433 133.48 52.677 133.224 52.861 132.888C53.053 132.544 53.149 132.144 53.149 131.688ZM57.0218 127.512C56.7738 127.512 56.5658 127.428 56.3978 127.26C56.2298 127.092 56.1458 126.884 56.1458 126.636C56.1458 126.388 56.2298 126.18 56.3978 126.012C56.5658 125.844 56.7738 125.76 57.0218 125.76C57.2618 125.76 57.4658 125.844 57.6338 126.012C57.8018 126.18 57.8858 126.388 57.8858 126.636C57.8858 126.884 57.8018 127.092 57.6338 127.26C57.4658 127.428 57.2618 127.512 57.0218 127.512ZM57.6938 128.388V135H56.3258V128.388H57.6938ZM61.0858 129.504V133.164C61.0858 133.412 61.1418 133.592 61.2538 133.704C61.3738 133.808 61.5738 133.86 61.8538 133.86H62.6938V135H61.6138C60.9978 135 60.5258 134.856 60.1978 134.568C59.8698 134.28 59.7058 133.812 59.7058 133.164V129.504H58.9258V128.388H59.7058V126.744H61.0858V128.388H62.6938V129.504H61.0858ZM66.6159 130.812C66.6159 129.996 66.8039 129.264 67.1799 128.616C67.5639 127.968 68.0799 127.464 68.7279 127.104C69.3839 126.736 70.0999 126.552 70.8759 126.552C71.7639 126.552 72.5519 126.772 73.2399 127.212C73.9359 127.644 74.4399 128.26 74.7519 129.06H73.1079C72.8919 128.62 72.5919 128.292 72.2079 128.076C71.8239 127.86 71.3799 127.752 70.8759 127.752C70.3239 127.752 69.8319 127.876 69.3999 128.124C68.9679 128.372 68.6279 128.728 68.3799 129.192C68.1399 129.656 68.0199 130.196 68.0199 130.812C68.0199 131.428 68.1399 131.968 68.3799 132.432C68.6279 132.896 68.9679 133.256 69.3999 133.512C69.8319 133.76 70.3239 133.884 70.8759 133.884C71.3799 133.884 71.8239 133.776 72.2079 133.56C72.5919 133.344 72.8919 133.016 73.1079 132.576H74.7519C74.4399 133.376 73.9359 133.992 73.2399 134.424C72.5519 134.856 71.7639 135.072 70.8759 135.072C70.0919 135.072 69.3759 134.892 68.7279 134.532C68.0799 134.164 67.5639 133.656 67.1799 133.008C66.8039 132.36 66.6159 131.628 66.6159 130.812ZM75.8971 131.664C75.8971 131 76.0331 130.412 76.3051 129.9C76.5851 129.388 76.9611 128.992 77.4331 128.712C77.9131 128.424 78.4411 128.28 79.0171 128.28C79.5371 128.28 79.9891 128.384 80.3731 128.592C80.7651 128.792 81.0771 129.044 81.3091 129.348V128.388H82.6891V135H81.3091V134.016C81.0771 134.328 80.7611 134.588 80.3611 134.796C79.9611 135.004 79.5051 135.108 78.9931 135.108C78.4251 135.108 77.9051 134.964 77.4331 134.676C76.9611 134.38 76.5851 133.972 76.3051 133.452C76.0331 132.924 75.8971 132.328 75.8971 131.664ZM81.3091 131.688C81.3091 131.232 81.2131 130.836 81.0211 130.5C80.8371 130.164 80.5931 129.908 80.2891 129.732C79.9851 129.556 79.6571 129.468 79.3051 129.468C78.9531 129.468 78.6251 129.556 78.3211 129.732C78.0171 129.9 77.7691 130.152 77.5771 130.488C77.3931 130.816 77.3011 131.208 77.3011 131.664C77.3011 132.12 77.3931 132.52 77.5771 132.864C77.7691 133.208 78.0171 133.472 78.3211 133.656C78.6331 133.832 78.9611 133.92 79.3051 133.92C79.6571 133.92 79.9851 133.832 80.2891 133.656C80.5931 133.48 80.8371 133.224 81.0211 132.888C81.2131 132.544 81.3091 132.144 81.3091 131.688ZM85.8539 129.348C86.0539 129.012 86.3179 128.752 86.6459 128.568C86.9819 128.376 87.3779 128.28 87.8339 128.28V129.696H87.4859C86.9499 129.696 86.5419 129.832 86.2619 130.104C85.9899 130.376 85.8539 130.848 85.8539 131.52V135H84.4859V128.388H85.8539V129.348ZM88.6354 131.664C88.6354 131 88.7714 130.412 89.0434 129.9C89.3234 129.388 89.6994 128.992 90.1714 128.712C90.6514 128.424 91.1834 128.28 91.7674 128.28C92.1994 128.28 92.6234 128.376 93.0394 128.568C93.4634 128.752 93.7994 129 94.0474 129.312V126.12H95.4274V135H94.0474V134.004C93.8234 134.324 93.5114 134.588 93.1114 134.796C92.7194 135.004 92.2674 135.108 91.7554 135.108C91.1794 135.108 90.6514 134.964 90.1714 134.676C89.6994 134.38 89.3234 133.972 89.0434 133.452C88.7714 132.924 88.6354 132.328 88.6354 131.664ZM94.0474 131.688C94.0474 131.232 93.9514 130.836 93.7594 130.5C93.5754 130.164 93.3314 129.908 93.0274 129.732C92.7234 129.556 92.3954 129.468 92.0434 129.468C91.6914 129.468 91.3634 129.556 91.0594 129.732C90.7554 129.9 90.5074 130.152 90.3154 130.488C90.1314 130.816 90.0394 131.208 90.0394 131.664C90.0394 132.12 90.1314 132.52 90.3154 132.864C90.5074 133.208 90.7554 133.472 91.0594 133.656C91.3714 133.832 91.6994 133.92 92.0434 133.92C92.3954 133.92 92.7234 133.832 93.0274 133.656C93.3314 133.48 93.5754 133.224 93.7594 132.888C93.9514 132.544 94.0474 132.144 94.0474 131.688Z" fill="white"/>
<path d="M50.2026 33.885H68.121V65.5411H50.2026V33.885Z" fill="#B27BFF"/>
<path d="M51.3399 49.7132C51.3399 43.2814 54.4115 37.5765 59.1328 33.885C55.6631 31.2005 51.2831 29.5786 46.5049 29.5786C35.1846 29.5786 26.0264 38.5831 26.0264 49.7132C26.0264 60.8431 35.1846 69.8478 46.5046 69.8478C51.2829 69.8478 55.6628 68.2259 59.1328 65.5411C54.4115 61.9057 51.3399 56.145 51.3399 49.7132Z" fill="#9E59FF"/>
<path d="M92.2958 49.7132C92.2958 60.8431 83.1376 69.8478 71.8176 69.8478C67.0393 69.8478 62.6594 68.2259 59.1895 65.5411C63.9677 61.8499 66.9826 56.145 66.9826 49.7132C66.9826 43.2814 63.9107 37.5765 59.1895 33.885C62.6591 31.2005 67.0393 29.5786 71.8176 29.5786C83.1376 29.5786 92.2961 38.6391 92.2961 49.7132H92.2958Z" fill="#9E59FF"/>
<defs>
<linearGradient id="paint0_linear_104_3207" x1="108.738" y1="-43.1" x2="129.331" y2="299.337" gradientUnits="userSpaceOnUse">
<stop stop-color="#9C2CF3"/>
<stop offset="1" stop-color="#3A49F9"/>
</linearGradient>
<radialGradient id="paint1_radial_104_3207" cx="0" cy="0" r="1" gradientUnits="userSpaceOnUse" gradientTransform="translate(53.934 210.594) rotate(141.774) scale(32.7287 32.3564)">
<stop stop-color="white"/>
<stop offset="1" stop-color="#DDDCDA"/>
</radialGradient>
</defs>
</svg>
